Coordinates
version=1
nRows=13
nColumns=38
inDegrees=no

Units are S.I. units (second, meters, Newtons, ...)
If the header above contains a line with 'inDegrees', this indicates whether rotational values are in degrees (yes) or radians (no).

endheader
time	pelvis_tilt	pelvis_list	pelvis_rotation	pelvis_tx	pelvis_ty	pelvis_tz	hip_flexion_r	hip_adduction_r	hip_rotation_r	knee_angle_r	ankle_angle_r	subtalar_angle_r	mtp_angle_r	hip_flexion_l	hip_adduction_l	hip_rotation_l	knee_angle_l	ankle_angle_l	subtalar_angle_l	mtp_angle_l	lumbar_extension	lumbar_bending	lumbar_rotation	arm_flex_r	arm_add_r	arm_rot_r	elbow_flex_r	pro_sup_r	wrist_flex_r	wrist_dev_r	arm_flex_l	arm_add_l	arm_rot_l	elbow_flex_l	pro_sup_l	wrist_flex_l	wrist_dev_l
0.92	-2.0428	1.40692	0.507951	0.861759	0.31334	0.910027	0.551701	0.167488	-0.182642	0.196505	0.22162	0	0	-0.239644	-0.119293	-0.175524	0.381986	0.523599	0	0	0.0627481	0.229324	-0.0908677	0.269315	-0.470841	0.138443	1.16584	0.925235	0	0	0.200575	-0.316531	0.00801112	1.21121	0.950599	0	0
0.93	-2.0519	1.40638	0.51247	0.860708	0.299689	0.907977	0.550371	0.173097	-0.1753	0.199831	0.160957	0	0	-0.221274	-0.135508	-0.223081	0.452865	0.523599	0	0	0.0601633	0.232811	-0.0804741	0.266281	-0.473998	0.134099	1.17123	0.920804	0	0	0.201368	-0.312669	0.00778596	1.21163	0.949328	0	0
0.94	-2.07113	1.40127	0.515548	0.858572	0.287535	0.906733	0.56287	0.184218	-0.165444	0.222328	0.087893	0	0	-0.196406	-0.155326	-0.271426	0.528767	0.523599	0	0	0.0533942	0.240879	-0.0603371	0.271104	-0.475904	0.132959	1.17363	0.917868	0	0	0.202012	-0.307783	0.00288376	1.21503	0.94671	0	0
0.95	-2.10696	1.39429	0.52832	0.85612	0.276196	0.90612	0.590894	0.194324	-0.160348	0.277128	0.048454	0	0	-0.166338	-0.173392	-0.306114	0.605373	0.523599	0	0	0.0461963	0.249375	-0.0368797	0.28297	-0.478283	0.140224	1.17235	0.917549	0	0	0.200954	-0.304128	-0.00442329	1.22098	0.945573	0	0
0.96	-2.18535	1.38901	0.58158	0.853796	0.264776	0.90521	0.633595	0.196466	-0.158162	0.359884	0.0507169	0	0	-0.128022	-0.182627	-0.323051	0.682538	0.523599	0	0	0.0468168	0.250666	-0.0157111	0.296329	-0.481526	0.158716	1.1683	0.914693	0	0	0.196931	-0.304763	-0.0102115	1.22784	0.950708	0	0
0.97	-2.19698	1.38896	0.579764	0.852782	0.252754	0.905642	0.652118	0.194938	-0.161951	0.424201	0.0575361	0	0	-0.102347	-0.189484	-0.309759	0.750804	0.523599	0	0	0.0362819	0.252929	-0.00651142	0.311479	-0.485474	0.179716	1.16348	0.906696	0	0	0.196124	-0.307921	-0.0117232	1.22997	0.961388	0	0
0.98	-2.1338	1.39194	0.51324	0.852491	0.240435	0.907317	0.643971	0.193601	-0.174281	0.461346	0.0551504	0	0	-0.0876911	-0.200107	-0.28439	0.816747	0.523599	0	0	0.0131835	0.258879	-0.00560549	0.326026	-0.488223	0.194891	1.1607	0.90077	0	0	0.199258	-0.311973	-0.0105455	1.22837	0.959123	0	0
0.99	-2.05155	1.39495	0.430523	0.851883	0.228256	0.909271	0.62429	0.192917	-0.189051	0.480574	0.0490697	0	0	-0.074425	-0.21105	-0.256307	0.881546	0.523599	0	0	-0.0121999	0.263702	-0.00519332	0.335527	-0.487687	0.20055	1.16144	0.896943	0	0	0.204503	-0.316339	-0.00848606	1.22527	0.950271	0	0
1	-1.97879	1.39756	0.355938	0.85074	0.216239	0.911161	0.601471	0.192967	-0.202785	0.490338	0.0467393	0	0	-0.0601634	-0.219936	-0.23166	0.94176	0.523599	0	0	-0.0347159	0.265427	-0.00147186	0.33949	-0.48371	0.1957	1.16424	0.902047	0	0	0.210492	-0.319643	-0.00683007	1.22203	0.943744	0	0
1.01	-1.9263	1.40133	0.29906	0.849196	0.204202	0.912982	0.579245	0.192255	-0.213749	0.496097	0.0478634	0	0	-0.0448911	-0.224126	-0.211686	0.995167	0.523599	0	0	-0.0523546	0.262508	0.00550726	0.339383	-0.477326	0.185369	1.16591	0.912321	0	0	0.215876	-0.322045	-0.00512825	1.21935	0.941677	0	0
1.02	-1.88892	1.40662	0.255434	0.847502	0.192131	0.91492	0.55762	0.190407	-0.221065	0.498614	0.0463947	0	0	-0.0281168	-0.224031	-0.194626	1.04484	0.523599	0	0	-0.0657391	0.255796	0.0137234	0.337882	-0.470189	0.176787	1.16407	0.918454	0	0	0.219738	-0.324333	-0.00357608	1.21717	0.941375	0	0
1.03	-1.86341	1.41322	0.221732	0.845774	0.180116	0.917041	0.53846	0.18888	-0.219006	0.501414	0.0413026	0	0	-0.00909607	-0.220931	-0.180425	1.09361	0.523599	0	0	-0.0758571	0.246537	0.022899	0.337057	-0.463293	0.171053	1.1578	0.922361	0	0	0.222002	-0.326909	-0.00250357	1.21504	0.942174	0	0
1.04	-1.8355	1.42002	0.184532	0.844148	0.16814	0.919501	0.52115	0.189537	-0.206061	0.50775	0.0369157	0	0	0.00926671	-0.216357	-0.167881	1.13801	0.523599	0	0	-0.0854189	0.237082	0.0327201	0.33732	-0.458	0.168772	1.14888	0.924913	0	0	0.223076	-0.329281	-0.00148033	1.21339	0.942502	0	0
